<svg width="1512" height="982" viewBox="0 0 1512 982" fill="none" xmlns="http://www.w3.org/2000/svg">
<g clip-path="url(#clip0_3_17)">
<rect width="1512" height="982" fill="#1D0B45"/>
<path d="M1511.5 982H3.5C39.5 814.5 157.667 853 254 832.5C360.667 817.833 580.2 757.5 605 633.5C629.8 509.5 698 467.313 786 489C891.5 515 1074.7 620.2 1165.5 391C1256.3 161.8 1434 97.5 1511.5 94V982Z" fill="#2C106C"/>
<path d="M1510.5 981.5V269C1348.9 269 1226.65 405 1205.5 497C1186.5 579.667 1114.8 751.2 980 776C811.5 807 721 710.5 649.5 710.5C592.3 710.5 519.333 826.5 490 884.5C454.092 955.5 357.7 923.3 250.5 884.5C143.3 845.7 34.8333 933 -6 981.5H1510.5Z" fill="#341086"/>
<path d="M1545 982V569C1383.35 569 1261.05 647.832 1239.9 701.16C1220.89 749.078 1149.17 848.507 1014.33 862.882C845.77 880.851 755.24 824.915 683.716 824.915C626.497 824.915 553.507 892.154 524.164 925.774C488.244 966.929 391.82 948.264 284.585 925.774C177.349 903.284 68.8468 953.887 28 982H1545Z" fill="#481DA7"/>
</g>
<defs>
<clipPath id="clip0_3_17">
<rect width="1512" height="982" fill="white"/>
</clipPath>
</defs>
</svg>
